<svg width="40" height="40" viewBox="0 0 40 40" fill="none" xmlns="http://www.w3.org/2000/svg">
<path d="M0 15C0 6.71573 6.71573 0 15 0H25C33.2843 0 40 6.71573 40 15V25C40 33.2843 33.2843 40 25 40H15C6.71573 40 0 33.2843 0 25V15Z" fill="#FF002E"/>
<path d="M12 18.5C11.1716 18.5 10.5 19.1716 10.5 20C10.5 20.8284 11.1716 21.5 12 21.5V18.5ZM28.0607 21.0607C28.6464 20.4749 28.6464 19.5251 28.0607 18.9393L18.5147 9.3934C17.9289 8.80761 16.9792 8.80761 16.3934 9.3934C15.8076 9.97918 15.8076 10.9289 16.3934 11.5147L24.8787 20L16.3934 28.4853C15.8076 29.0711 15.8076 30.0208 16.3934 30.6066C16.9792 31.1924 17.9289 31.1924 18.5147 30.6066L28.0607 21.0607ZM12 21.5H27V18.5H12V21.5Z" fill="white"/>
</svg>
